<svg xmlns="http://www.w3.org/2000/svg" id="canvas" viewBox="603.646 420.175 458.232 189.343"><path d="M 607.87,424.40 C 606.64 426.09, 607.06 428.25, 606.81 432.99 C 606.57 437.73, 606.68 440.96, 606.66 448.11 C 606.64 455.25, 606.63 460.27, 606.72 468.70 C 606.80 477.13, 606.89 481.91, 607.07 490.26 C 607.26 498.62, 607.34 502.96, 607.65 510.48 C 607.95 518.00, 608.18 521.61, 608.61 527.86 C 609.04 534.12, 609.31 536.96, 609.80 541.76 C 610.29 546.56, 610.11 548.89, 611.06 551.85 C 612.00 554.80, 613.27 555.38, 614.51 556.51 C 615.75 557.65, 616.34 557.53, 617.24 557.52 C 618.14 557.51, 618.49 557.10, 619.03 556.47 C 619.56 555.83, 619.70 555.79, 619.90 554.35 C 620.11 552.91, 620.73 552.03, 620.04 549.27 C 619.35 546.51, 617.64 544.92, 616.43 540.53 C 615.22 536.14, 614.79 533.38, 613.99 527.32 C 613.19 521.27, 612.86 517.66, 612.42 510.24 C 611.98 502.81, 611.89 498.48, 611.78 490.18 C 611.68 481.88, 611.73 477.11, 611.90 468.73 C 612.07 460.34, 612.32 455.36, 612.65 448.25 C 612.98 441.15, 613.48 437.95, 613.55 433.20 C 613.61 428.46, 614.09 426.30, 612.96 424.54 C 611.83 422.78, 609.10 422.71, 607.87 424.40" style="stroke: black; fill: black;"/><path d="M 675.96,438.88 C 674.40 438.31, 673.30 438.10, 671.35 439.26 C 669.40 440.43, 668.59 441.64, 666.20 444.70 C 663.81 447.75, 662.59 450.22, 659.40 454.55 C 656.20 458.89, 654.15 461.63, 650.22 466.36 C 646.29 471.09, 643.82 473.70, 639.76 478.21 C 635.70 482.71, 633.37 484.91, 629.95 488.90 C 626.52 492.89, 624.56 494.47, 622.62 498.15 C 620.68 501.83, 619.87 503.78, 620.25 507.31 C 620.64 510.85, 621.67 513.37, 624.55 515.82 C 627.42 518.28, 629.92 518.53, 634.63 519.58 C 639.35 520.63, 642.15 520.75, 648.11 521.07 C 654.07 521.39, 657.65 521.39, 664.44 521.20 C 671.23 521.00, 675.15 520.68, 682.05 520.08 C 688.96 519.49, 692.63 519.05, 698.98 518.22 C 705.33 517.39, 708.49 516.89, 713.82 515.93 C 719.15 514.97, 721.66 514.62, 725.61 513.42 C 729.55 512.22, 731.36 511.56, 733.54 509.93 C 735.73 508.29, 736.34 506.80, 736.53 505.25 C 736.73 503.69, 735.90 502.69, 734.52 502.17 C 733.15 501.64, 731.97 501.87, 729.66 502.62 C 727.35 503.37, 726.42 504.52, 722.97 505.92 C 719.52 507.32, 717.39 508.29, 712.42 509.60 C 707.46 510.91, 704.32 511.51, 698.16 512.47 C 691.99 513.42, 688.34 513.88, 681.59 514.39 C 674.84 514.90, 670.96 515.14, 664.40 515.03 C 657.85 514.92, 654.32 514.61, 648.81 513.83 C 643.30 513.05, 640.56 512.29, 636.85 511.13 C 633.14 509.96, 632.00 508.93, 630.26 508.01 C 628.53 507.09, 628.27 507.73, 628.18 506.53 C 628.10 505.33, 628.41 504.66, 629.85 502.02 C 631.30 499.38, 632.45 497.22, 635.41 493.33 C 638.36 489.44, 640.63 487.05, 644.63 482.57 C 648.63 478.09, 651.19 475.46, 655.41 470.94 C 659.63 466.42, 661.93 463.81, 665.73 459.99 C 669.53 456.18, 671.76 454.59, 674.41 451.87 C 677.07 449.15, 678.08 448.35, 679.02 446.40 C 679.97 444.44, 679.76 443.61, 679.15 442.11 C 678.53 440.60, 677.51 439.45, 675.96 438.88" style="stroke: black; fill: black;"/><path d="M 729.74,477.83 C 728.27 479.13, 727.23 480.64, 727.34 483.47 C 727.45 486.30, 728.54 488.35, 730.31 491.97 C 732.07 495.58, 733.42 497.92, 736.15 501.54 C 738.87 505.15, 740.58 507.12, 743.94 510.05 C 747.30 512.99, 749.20 514.36, 752.95 516.21 C 756.70 518.06, 758.77 518.75, 762.68 519.31 C 766.60 519.86, 768.75 519.81, 772.52 518.97 C 776.29 518.13, 778.27 517.30, 781.54 515.11 C 784.80 512.91, 786.33 511.27, 788.84 508.01 C 791.34 504.75, 792.27 502.57, 794.05 498.82 C 795.82 495.07, 796.48 492.83, 797.72 489.26 C 798.95 485.69, 800.32 483.75, 800.23 480.97 C 800.15 478.19, 799.00 476.52, 797.29 475.36 C 795.58 474.19, 793.53 474.06, 791.67 475.15 C 789.81 476.23, 787.99 477.79, 787.98 480.77 C 787.98 483.76, 789.89 485.72, 791.65 490.06 C 793.40 494.40, 794.56 497.12, 796.76 502.47 C 798.96 507.83, 800.23 510.97, 802.64 516.85 C 805.06 522.73, 806.47 525.91, 808.83 531.87 C 811.19 537.83, 812.47 540.93, 814.44 546.65 C 816.41 552.37, 817.43 555.28, 818.68 560.48 C 819.92 565.67, 820.36 568.25, 820.66 572.62 C 820.96 577.00, 820.86 579.03, 820.17 582.35 C 819.48 585.66, 818.86 586.85, 817.20 589.22 C 815.55 591.59, 814.69 592.48, 811.91 594.19 C 809.12 595.89, 807.38 596.71, 803.29 597.73 C 799.20 598.75, 796.60 599.17, 791.46 599.29 C 786.32 599.41, 783.17 599.19, 777.58 598.33 C 772.00 597.46, 768.83 596.71, 763.53 594.95 C 758.23 593.20, 755.39 591.98, 751.09 589.54 C 746.78 587.10, 744.74 585.57, 742.01 582.76 C 739.27 579.95, 738.43 578.53, 737.41 575.50 C 736.40 572.46, 736.20 571.09, 736.94 567.58 C 737.68 564.06, 738.40 562.01, 741.12 557.92 C 743.84 553.82, 745.88 551.39, 750.54 547.11 C 755.19 542.83, 758.22 540.54, 764.41 536.50 C 770.59 532.47, 774.36 530.49, 781.46 526.93 C 788.56 523.37, 792.58 521.72, 799.93 518.72 C 807.28 515.72, 811.19 514.39, 818.21 511.91 C 825.23 509.43, 828.76 508.39, 835.04 506.33 C 841.31 504.28, 844.25 503.38, 849.57 501.63 C 854.89 499.88, 857.28 499.16, 861.63 497.57 C 865.97 495.99, 867.92 495.42, 871.31 493.70 C 874.71 491.98, 876.40 491.29, 878.61 488.99 C 880.81 486.68, 881.62 485.09, 882.33 482.16 C 883.04 479.23, 883.13 477.29, 882.16 474.31 C 881.19 471.34, 880.15 469.42, 877.49 467.29 C 874.82 465.15, 872.66 464.19, 868.83 463.62 C 865.01 463.05, 862.60 463.48, 858.37 464.44 C 854.15 465.40, 851.74 466.28, 847.69 468.42 C 843.64 470.56, 841.42 472.05, 838.11 475.14 C 834.80 478.23, 833.09 480.12, 831.13 483.89 C 829.17 487.66, 828.18 490.05, 828.29 493.99 C 828.41 497.93, 829.43 500.43, 831.69 503.57 C 833.95 506.72, 835.99 508.11, 839.59 509.72 C 843.18 511.33, 845.56 511.53, 849.67 511.61 C 853.79 511.68, 856.08 511.24, 860.17 510.08 C 864.25 508.93, 866.40 507.97, 870.10 505.83 C 873.81 503.69, 875.64 502.23, 878.69 499.39 C 881.74 496.54, 883.32 494.71, 885.36 491.59 C 887.39 488.47, 888.72 486.27, 888.87 483.80 C 889.01 481.33, 887.48 479.75, 886.07 479.24 C 884.67 478.74, 882.77 479.45, 881.86 481.27 C 880.95 483.10, 880.45 485.38, 881.54 488.38 C 882.63 491.38, 884.54 493.33, 887.29 496.27 C 890.04 499.21, 891.97 500.76, 895.29 503.09 C 898.60 505.43, 900.39 506.46, 903.86 507.93 C 907.33 509.39, 909.11 510.07, 912.64 510.43 C 916.17 510.79, 918.18 510.60, 921.50 509.71 C 924.82 508.82, 926.49 507.94, 929.24 505.98 C 931.99 504.03, 933.20 502.60, 935.25 499.92 C 937.30 497.24, 938.47 495.47, 939.48 492.59 C 940.49 489.71, 940.87 487.57, 940.28 485.51 C 939.70 483.45, 938.04 482.46, 936.58 482.28 C 935.12 482.10, 933.71 482.92, 932.99 484.62 C 932.27 486.31, 931.98 488.21, 932.98 490.77 C 933.98 493.33, 935.52 494.99, 938.01 497.42 C 940.50 499.85, 942.31 501.08, 945.43 502.93 C 948.55 504.77, 950.24 505.62, 953.60 506.64 C 956.96 507.65, 958.75 507.94, 962.23 508.00 C 965.71 508.07, 967.51 507.76, 971.00 506.96 C 974.50 506.16, 976.31 505.42, 979.73 503.99 C 983.14 502.57, 984.91 501.49, 988.07 499.84 C 991.23 498.19, 992.90 497.18, 995.52 495.73 C 998.15 494.28, 999.42 493.56, 1001.21 492.58 C 1003.00 491.60, 1003.39 490.98, 1004.47 490.81 C 1005.55 490.64, 1005.60 490.82, 1006.60 491.71 C 1007.61 492.61, 1007.85 493.67, 1009.51 495.29 C 1011.16 496.90, 1012.37 498.01, 1014.87 499.80 C 1017.37 501.60, 1019.07 502.50, 1022.02 504.28 C 1024.97 506.06, 1026.54 507.01, 1029.64 508.70 C 1032.73 510.40, 1034.41 511.20, 1037.49 512.75 C 1040.56 514.30, 1042.09 515.45, 1045.03 516.46 C 1047.96 517.46, 1049.67 517.85, 1052.16 517.78 C 1054.66 517.72, 1056.22 517.33, 1057.52 516.12 C 1058.82 514.92, 1059.14 513.43, 1058.68 511.76 C 1058.21 510.08, 1057.05 509.13, 1055.18 507.75 C 1053.31 506.37, 1051.92 505.92, 1049.33 504.87 C 1046.74 503.82, 1045.05 503.70, 1042.22 502.52 C 1039.40 501.34, 1037.90 500.57, 1035.20 498.96 C 1032.51 497.35, 1031.19 496.36, 1028.74 494.45 C 1026.29 492.53, 1025.21 491.28, 1022.95 489.38 C 1020.70 487.49, 1019.82 486.46, 1017.46 484.98 C 1015.11 483.51, 1013.85 482.84, 1011.18 482.01 C 1008.51 481.17, 1007.01 480.83, 1004.12 480.79 C 1001.24 480.76, 999.63 480.88, 996.75 481.83 C 993.87 482.78, 992.53 483.91, 989.73 485.56 C 986.92 487.20, 985.59 488.43, 982.74 490.04 C 979.90 491.65, 978.33 492.49, 975.50 493.61 C 972.67 494.72, 971.18 495.13, 968.60 495.62 C 966.02 496.11, 964.83 496.15, 962.59 496.05 C 960.36 495.94, 959.35 495.82, 957.43 495.08 C 955.50 494.35, 954.55 493.89, 952.97 492.37 C 951.38 490.86, 950.87 489.56, 949.50 487.51 C 948.13 485.46, 947.91 483.82, 946.11 482.13 C 944.32 480.44, 942.98 479.69, 940.53 479.04 C 938.07 478.39, 936.33 478.22, 933.83 478.88 C 931.34 479.54, 929.64 480.52, 928.05 482.34 C 926.46 484.17, 926.59 485.84, 925.90 488.01 C 925.20 490.17, 925.33 491.43, 924.58 493.17 C 923.84 494.90, 923.36 495.64, 922.16 496.69 C 920.96 497.74, 920.28 498.01, 918.59 498.42 C 916.90 498.82, 915.80 498.85, 913.71 498.70 C 911.61 498.55, 910.39 498.55, 908.10 497.65 C 905.82 496.74, 904.34 496.06, 902.28 494.18 C 900.22 492.30, 899.26 490.79, 897.81 488.24 C 896.36 485.68, 896.64 483.59, 895.03 481.39 C 893.42 479.19, 892.11 478.20, 889.77 477.23 C 887.44 476.27, 885.73 476.10, 883.37 476.56 C 881.01 477.03, 879.54 477.67, 877.98 479.54 C 876.43 481.41, 876.88 483.35, 875.60 485.90 C 874.33 488.45, 873.70 490.03, 871.62 492.31 C 869.54 494.58, 868.02 495.69, 865.22 497.26 C 862.41 498.83, 860.62 499.46, 857.59 500.15 C 854.56 500.85, 852.79 500.89, 850.07 500.71 C 847.35 500.54, 845.95 500.01, 843.98 499.27 C 842.01 498.54, 841.22 498.15, 840.22 497.04 C 839.21 495.93, 838.99 495.43, 838.96 493.71 C 838.92 492.00, 838.90 490.76, 840.05 488.46 C 841.20 486.16, 842.30 484.45, 844.70 482.22 C 847.11 479.98, 848.99 478.69, 852.08 477.29 C 855.17 475.89, 857.25 475.46, 860.17 475.23 C 863.08 475.00, 864.55 475.70, 866.67 476.16 C 868.80 476.61, 869.52 477.09, 870.79 477.52 C 872.05 477.95, 872.47 477.90, 872.99 478.33 C 873.51 478.75, 873.70 478.92, 873.39 479.65 C 873.07 480.37, 872.73 480.65, 871.41 481.94 C 870.09 483.24, 869.30 484.30, 866.78 486.12 C 864.25 487.95, 862.64 489.09, 858.79 491.07 C 854.94 493.06, 852.62 493.99, 847.53 496.06 C 842.43 498.12, 839.52 499.14, 833.33 501.41 C 827.14 503.68, 823.62 504.80, 816.58 507.40 C 809.55 510.00, 805.61 511.36, 798.16 514.40 C 790.71 517.45, 786.65 519.09, 779.34 522.62 C 772.03 526.16, 768.16 528.08, 761.61 532.08 C 755.07 536.08, 751.82 538.25, 746.61 542.63 C 741.39 547.02, 738.91 549.33, 735.52 554.01 C 732.12 558.68, 730.70 561.21, 729.63 565.99 C 728.57 570.77, 728.76 573.52, 730.21 577.89 C 731.66 582.26, 733.35 584.34, 736.88 587.84 C 740.41 591.35, 742.92 592.77, 747.84 595.43 C 752.76 598.08, 755.77 599.22, 761.50 601.11 C 767.23 603.00, 770.49 603.80, 776.48 604.88 C 782.48 605.95, 785.75 606.36, 791.46 606.48 C 797.17 606.60, 800.05 606.48, 805.02 605.47 C 809.99 604.47, 812.45 603.76, 816.30 601.45 C 820.14 599.15, 821.92 597.50, 824.24 593.95 C 826.57 590.40, 827.24 588.13, 827.92 583.72 C 828.60 579.32, 828.27 576.90, 827.65 571.93 C 827.02 566.96, 826.32 564.34, 824.79 558.89 C 823.27 553.44, 822.13 550.51, 820.04 544.68 C 817.95 538.85, 816.64 535.75, 814.35 529.73 C 812.06 523.71, 810.67 520.51, 808.60 514.59 C 806.52 508.66, 805.34 505.51, 803.96 500.09 C 802.58 494.66, 802.18 491.81, 801.70 487.47 C 801.22 483.13, 802.54 480.96, 801.55 478.38 C 800.57 475.81, 798.83 475.27, 796.78 474.60 C 794.74 473.94, 793.13 474.16, 791.31 475.05 C 789.49 475.93, 788.55 476.78, 787.69 479.03 C 786.83 481.28, 787.61 483.18, 787.00 486.30 C 786.39 489.42, 785.89 491.53, 784.62 494.62 C 783.35 497.72, 782.45 499.41, 780.66 501.76 C 778.88 504.12, 777.80 504.99, 775.70 506.39 C 773.59 507.80, 772.51 508.20, 770.14 508.80 C 767.78 509.39, 766.49 509.60, 763.87 509.37 C 761.26 509.14, 759.79 508.91, 757.09 507.64 C 754.38 506.38, 752.81 505.43, 750.34 503.04 C 747.88 500.66, 746.62 498.90, 744.76 495.72 C 742.91 492.55, 742.29 490.26, 741.06 487.17 C 739.83 484.08, 739.89 482.29, 738.61 480.26 C 737.34 478.22, 736.46 477.47, 734.68 476.98 C 732.91 476.50, 731.21 476.53, 729.74 477.83" style="stroke: black; fill: black;"/></svg>